<svg xmlns="http://www.w3.org/2000/svg" viewBox="0 0 256 256" role="img" aria-labelledby="title desc">
  <title id="title">SpendSmart Logo</title>
  <desc id="desc">Classic monogram mark with shield and S curve</desc>
  <rect x="20" y="20" width="216" height="216" rx="44" fill="#0f172a"/>
  <rect x="36" y="36" width="184" height="184" rx="34" fill="#111827"/>
  <path d="M70 88c0-19 15-34 34-34h48c12 0 24 3 34 9l-10 23c-7-4-15-6-23-6h-48c-7 0-12 5-12 12 0 8 5 12 12 12h45c24 0 40 15 40 38 0 22-17 38-41 38h-45c-15 0-29-4-40-11l10-23c8 5 18 8 29 8h46c8 0 14-6 14-13 0-8-6-12-14-12h-45c-23 0-39-15-39-41z" fill="#10b981"/>
  <path d="M71 88c0-18 15-33 33-33h47c12 0 23 3 33 8l-5 11c-9-5-19-7-29-7h-46c-11 0-20 9-20 20 0 12 8 20 20 20h45c23 0 39 15 39 37 0 22-17 37-40 37h-44c-15 0-28-3-39-10l5-11c10 6 22 9 34 9h44c13 0 23-10 23-24 0-13-10-23-23-23h-45c-22 0-38-15-38-34z" fill="#ecfdf5" opacity=".9"/>
</svg>
